<svg xmlns="http://www.w3.org/2000/svg" viewBox="0 0 1024 1024">
  <path d="M126 302h286l80-102h406v548c0 92-74 166-166 166H292c-92 0-166-74-166-166Z" fill="#7D572C"/>
  <path d="M126 302h772v132H126Z" fill="#1C1813"/>
  <path d="M150 326h724v422c0 78-64 142-142 142H292c-78 0-142-64-142-142Z" fill="none" stroke="#B0B6C2" stroke-width="38"/>
  <path d="M390 506h206v224H390Z" fill="#B0B6C2" stroke="#3D3A39" stroke-width="26"/>
  <path d="M430 478h206v224H430Z" fill="#DEE6F0" stroke="#3D3A39" stroke-width="26"/>
  <path d="M468 528h130M468 576h96M468 624h118" stroke="#7D572C" stroke-width="22" stroke-linecap="round"/>
  <circle cx="430" cy="698" r="28" fill="#B72A18"/>
</svg>
